<mxfile host="Electron" agent="Mozilla/5.0 (Windows NT 10.0; Win64; x64) AppleWebKit/537.36 (KHTML, like Gecko) draw.io/24.7.8 Chrome/128.0.6613.36 Electron/32.0.1 Safari/537.36" version="24.7.8">
  <diagram name="Page-1" id="OEmeDpXnvqwbQMvPcl8j">
    <mxGraphModel dx="1048" dy="732" grid="1" gridSize="10" guides="1" tooltips="1" connect="1" arrows="1" fold="1" page="1" pageScale="1" pageWidth="850" pageHeight="1100" math="0" shadow="0">
      <root>
        <mxCell id="0" />
        <mxCell id="1" parent="0" />
        <mxCell id="kk9Wr34ttXd7i410Cl1g-2" value="" style="ellipse;shape=cloud;whiteSpace=wrap;html=1;fillColor=#dae8fc;strokeColor=#6c8ebf;" parent="1" vertex="1">
          <mxGeometry x="240" y="220" width="202" height="172" as="geometry" />
        </mxCell>
        <mxCell id="hCL2K8-LPSnUoJVgqAv6-1" value="&lt;div&gt;&lt;b&gt;LAMDADB&lt;/b&gt;&lt;/div&gt;" style="shape=cylinder3;whiteSpace=wrap;html=1;boundedLbl=1;backgroundOutline=1;size=15;fillColor=#ffe6cc;strokeColor=#d79b00;" parent="1" vertex="1">
          <mxGeometry x="312" y="267" width="70" height="80" as="geometry" />
        </mxCell>
        <mxCell id="hCL2K8-LPSnUoJVgqAv6-3" value="MS SQL Server" style="text;html=1;align=center;verticalAlign=middle;whiteSpace=wrap;rounded=0;fontStyle=0" parent="1" vertex="1">
          <mxGeometry x="213" y="343" width="278" height="30" as="geometry" />
        </mxCell>
        <mxCell id="hCL2K8-LPSnUoJVgqAv6-4" value="Americana Last Mile &lt;span style=&quot;background-color: initial;&quot;&gt;Platform&lt;/span&gt;&lt;div&gt;&lt;span style=&quot;background-color: initial;&quot;&gt;(ALMP)&lt;/span&gt;&lt;/div&gt;" style="whiteSpace=wrap;html=1;aspect=fixed;fontStyle=1;fillColor=#d5e8d4;strokeColor=#82b366;" parent="1" vertex="1">
          <mxGeometry x="37" y="120" width="110" height="110" as="geometry" />
        </mxCell>
        <mxCell id="hCL2K8-LPSnUoJVgqAv6-7" value="Treasure Data" style="rounded=0;whiteSpace=wrap;html=1;fillColor=#fff2cc;strokeColor=#d6b656;" parent="1" vertex="1">
          <mxGeometry x="690" y="290" width="120" height="60" as="geometry" />
        </mxCell>
        <mxCell id="hCL2K8-LPSnUoJVgqAv6-8" value="" style="endArrow=classic;html=1;rounded=0;entryX=0;entryY=0;entryDx=0;entryDy=52.5;entryPerimeter=0;" parent="1" target="hCL2K8-LPSnUoJVgqAv6-1" edge="1">
          <mxGeometry width="50" height="50" relative="1" as="geometry">
            <mxPoint x="90" y="320" as="sourcePoint" />
            <mxPoint x="250" y="260" as="targetPoint" />
          </mxGeometry>
        </mxCell>
        <mxCell id="hCL2K8-LPSnUoJVgqAv6-9" value="" style="endArrow=classic;html=1;rounded=0;entryX=0;entryY=0.5;entryDx=0;entryDy=0;exitX=1;exitY=0;exitDx=0;exitDy=52.5;exitPerimeter=0;" parent="1" source="hCL2K8-LPSnUoJVgqAv6-1" target="hCL2K8-LPSnUoJVgqAv6-7" edge="1">
          <mxGeometry width="50" height="50" relative="1" as="geometry">
            <mxPoint x="390" y="320" as="sourcePoint" />
            <mxPoint x="430" y="313" as="targetPoint" />
          </mxGeometry>
        </mxCell>
        <mxCell id="hCL2K8-LPSnUoJVgqAv6-10" value="&lt;span style=&quot;font-size: 10px;&quot; data-teams=&quot;true&quot;&gt;&lt;span class=&quot;ui-provider a b c d e f g h i j k l m n o p q r s t u v w x y z ab ac ae af ag ah ai aj ak&quot; dir=&quot;ltr&quot;&gt;&lt;p&gt;/****** Object:&amp;nbsp; Table [ALMP].[delivery_logs_day_ALMP]&amp;nbsp;&amp;nbsp;&amp;nbsp; Script Date: 9/4/2024 5:01:46 PM ******/&lt;br&gt;&lt;br&gt;SET ANSI_NULLS ON&lt;br&gt;&lt;br&gt;GO&lt;/p&gt;&lt;p&gt;&amp;nbsp;&lt;/p&gt;&lt;p&gt;SET QUOTED_IDENTIFIER ON&lt;br&gt;&lt;br&gt;GO&lt;/p&gt;&lt;p&gt;&amp;nbsp;&lt;/p&gt;&lt;p&gt;CREATE TABLE [ALMP].[delivery_logs_day_ALMP](&lt;br&gt;&lt;br&gt;  [outlet] [varchar](1024) NULL,&lt;br&gt;&lt;br&gt;  [_date] [varchar](1024) NULL,&lt;br&gt;&lt;br&gt;  [orders] [varchar](1024) NULL,&lt;br&gt;&lt;br&gt;  [pos] [varchar](1024) NULL,&lt;br&gt;&lt;br&gt;  [driver] [varchar](1024) NULL,&lt;br&gt;&lt;br&gt;  [status] [varchar](1024) NULL,&lt;br&gt;&lt;br&gt;  [first_check] [varchar](1024) NULL,&lt;br&gt;&lt;br&gt;  [created_at_oneclick] [varchar](1024) NULL,&lt;br&gt;&lt;br&gt;  [created_at_americana] [varchar](1024) NULL,&lt;br&gt;&lt;br&gt;  [first_assign_time] [varchar](1024) NULL,&lt;br&gt;&lt;br&gt;  [assign_time] [varchar](1024) NULL,&lt;br&gt;&lt;br&gt;  [accept_time] [varchar](1024) NULL,&lt;br&gt;&lt;br&gt;  [pickup_time] [varchar](1024) NULL,&lt;br&gt;&lt;br&gt;  [at_customer_time] [varchar](1024) NULL,&lt;br&gt;&lt;br&gt;  [delivered_time] [varchar](1024) NULL,&lt;br&gt;&lt;br&gt;  [return_time] [varchar](1024) NULL,&lt;br&gt;&lt;br&gt;  [wait_time] [varchar](1024) NULL,&lt;br&gt;&lt;br&gt;  [ordr_begintime_time] [varchar](1024) NULL,&lt;br&gt;&lt;br&gt;  [ordr_dueto_time] [varchar](1024) NULL,&lt;br&gt;&lt;br&gt;  [payment_method] [varchar](1024) NULL,&lt;br&gt;&lt;br&gt;  [amount] [varchar](1024) NULL,&lt;br&gt;&lt;br&gt;  [autoassign] [varchar](1024) NULL,&lt;br&gt;&lt;br&gt;  [manual_assign] [varchar](1024) NULL,&lt;br&gt;&lt;br&gt;  [customer_name] [varchar](1024) NULL,&lt;br&gt;&lt;br&gt;  [customer_number] [varchar](1024) NULL,&lt;br&gt;&lt;br&gt;  [picked_coordinate] [varchar](1024) NULL,&lt;br&gt;&lt;br&gt;  [delivered_coordinate] [varchar](1024) NULL,&lt;br&gt;&lt;br&gt;  [delivered_address] [varchar](1024) NULL,&lt;br&gt;&lt;br&gt;  [comments] [ntext] NULL,&lt;br&gt;&lt;br&gt;  [delivery_zone] [varchar](1024) NULL,&lt;br&gt;&lt;br&gt;  [source] [varchar](1024) NULL,&lt;br&gt;&lt;br&gt;  [dispatch_counter] [varchar](1024) NULL,&lt;br&gt;&lt;br&gt;  [city] [varchar](1024) NULL,&lt;br&gt;&lt;br&gt;  [store_id] [varchar](1024) NULL,&lt;br&gt;&lt;br&gt;  [in_store_time] [varchar](1024) NULL,&lt;br&gt;&lt;br&gt;  [drive_time] [varchar](1024) NULL,&lt;br&gt;&lt;br&gt;  [sos] [varchar](1024) NULL,&lt;br&gt;&lt;br&gt;  [clubbed_with] [nvarchar](max) NULL,&lt;br&gt;&lt;br&gt;  [sent_messages] [varchar](1024) NULL,&lt;br&gt;&lt;br&gt;  [tracking_url] [varchar](1024) NULL,&lt;br&gt;&lt;br&gt;  [open_rate] [varchar](1024) NULL,&lt;br&gt;&lt;br&gt;  [coordinate_correction_rate] [varchar](1024) NULL,&lt;br&gt;&lt;br&gt;  [feedback] [varchar](1024) NULL,&lt;br&gt;&lt;br&gt;  [was_chat] [varchar](1024) NULL,&lt;br&gt;&lt;br&gt;  [brand_name] [varchar](1024) NULL,&lt;br&gt;&lt;br&gt;  [driver_type] [varchar](1024) NULL,&lt;br&gt;&lt;br&gt;  [operational_hours] [varchar](1024) NULL,&lt;br&gt;&lt;br&gt;  [api_business_date] [varchar](1024) NULL,&lt;br&gt;&lt;br&gt;  [near_by_pickup] [varchar](1024) NULL,&lt;br&gt;&lt;br&gt;  [last_assigned_to_nearby_pickup] [varchar](1024) NULL,&lt;br&gt;&lt;br&gt;  [arrived_for_pickup] [varchar](1024) NULL,&lt;br&gt;&lt;br&gt;  [arrived_event_name] [varchar](1024) NULL,&lt;br&gt;&lt;br&gt;  [nearby_for_pickup_to_arrived_pickup] [varchar](1024) NULL,&lt;br&gt;&lt;br&gt;  [last_assigned_to_arrived_pickup] [varchar](1024) NULL,&lt;br&gt;&lt;br&gt;  [wait_at_store] [varchar](1024) NULL,&lt;br&gt;&lt;br&gt;  [first_assign_type] [varchar](1024) NULL,&lt;br&gt;&lt;br&gt;  [driverid] [varchar](64) NULL,&lt;br&gt;&lt;br&gt;  [plan_km] [varchar](64) NULL,&lt;br&gt;&lt;br&gt;  [real_km] [varchar](64) NULL,&lt;br&gt;&lt;br&gt;  [store_cost_center] [varchar](max) NULL&lt;br&gt;&lt;br&gt;) ON [PRIMARY] TEXTIMAGE_ON [PRIMARY]&lt;br&gt;&lt;br&gt;GO&lt;/p&gt;&lt;/span&gt;&lt;/span&gt;" style="text;whiteSpace=wrap;html=1;" parent="1" vertex="1">
          <mxGeometry x="87" y="381" width="560" height="1699" as="geometry" />
        </mxCell>
        <mxCell id="hCL2K8-LPSnUoJVgqAv6-11" value="&lt;b&gt;Data Availability:&amp;nbsp;&lt;/b&gt;&lt;div&gt;Countries (8),&amp;nbsp;&lt;span style=&quot;background-color: initial;&quot;&gt;Brands(6) and&amp;nbsp;&lt;/span&gt;&lt;span style=&quot;background-color: initial;&quot;&gt;Channels(ALL)&amp;nbsp;&lt;/span&gt;&lt;/div&gt;" style="text;html=1;align=left;verticalAlign=middle;whiteSpace=wrap;rounded=0;" parent="1" vertex="1">
          <mxGeometry x="605" y="182" width="245" height="30" as="geometry" />
        </mxCell>
        <mxCell id="hCL2K8-LPSnUoJVgqAv6-12" value="IP Whitlisting&lt;div&gt;(Treasure Data)&lt;/div&gt;" style="text;html=1;align=center;verticalAlign=middle;whiteSpace=wrap;rounded=0;" parent="1" vertex="1">
          <mxGeometry x="510" y="324" width="90" height="30" as="geometry" />
        </mxCell>
        <mxCell id="hCL2K8-LPSnUoJVgqAv6-14" value="&lt;div style=&quot;text-align: left;&quot;&gt;&lt;span style=&quot;background-color: initial;&quot;&gt;&lt;b&gt;Database Name:&lt;/b&gt;&amp;nbsp;LAMDADB&lt;/span&gt;&lt;/div&gt;&lt;div style=&quot;text-align: left;&quot;&gt;&lt;b&gt;Table Name:&lt;/b&gt;&amp;nbsp;&lt;span style=&quot;&quot;&gt;delivery_logs_day_ALMP&lt;/span&gt;&lt;br&gt;&lt;/div&gt;&lt;div style=&quot;text-align: left;&quot;&gt;&lt;b&gt;Rows:&lt;/b&gt;&amp;nbsp;46.56M&lt;span style=&quot;text-align: left;&quot;&gt;&lt;br&gt;&lt;/span&gt;&lt;/div&gt;&lt;div style=&quot;text-align: left;&quot;&gt;&lt;b&gt;Data:&amp;nbsp;&lt;/b&gt;&lt;span style=&quot;background-color: initial; text-align: center;&quot;&gt;50.27 GB&lt;/span&gt;&lt;/div&gt;" style="text;html=1;align=center;verticalAlign=middle;whiteSpace=wrap;rounded=0;" parent="1" vertex="1">
          <mxGeometry x="601" y="110" width="219" height="80" as="geometry" />
        </mxCell>
        <mxCell id="hCL2K8-LPSnUoJVgqAv6-17" value="read-only access" style="text;html=1;align=center;verticalAlign=middle;whiteSpace=wrap;rounded=0;" parent="1" vertex="1">
          <mxGeometry x="497" y="294" width="120" height="30" as="geometry" />
        </mxCell>
        <mxCell id="kk9Wr34ttXd7i410Cl1g-1" value="" style="endArrow=none;html=1;rounded=0;" parent="1" edge="1">
          <mxGeometry width="50" height="50" relative="1" as="geometry">
            <mxPoint x="90" y="320" as="sourcePoint" />
            <mxPoint x="90" y="230" as="targetPoint" />
          </mxGeometry>
        </mxCell>
        <mxCell id="kk9Wr34ttXd7i410Cl1g-3" value="Azure" style="text;html=1;align=center;verticalAlign=middle;whiteSpace=wrap;rounded=0;fontStyle=1" parent="1" vertex="1">
          <mxGeometry x="290" y="239" width="60" height="30" as="geometry" />
        </mxCell>
        <mxCell id="kk9Wr34ttXd7i410Cl1g-4" value="Sync: N-1" style="text;html=1;align=center;verticalAlign=middle;whiteSpace=wrap;rounded=0;" parent="1" vertex="1">
          <mxGeometry x="87" y="292" width="73" height="30" as="geometry" />
        </mxCell>
        <mxCell id="kk9Wr34ttXd7i410Cl1g-7" value="&lt;b&gt;&lt;font style=&quot;font-size: 18px;&quot;&gt;ALMP Platform Integration with Treasure Data for CDP&lt;/font&gt;&lt;/b&gt;" style="text;html=1;align=center;verticalAlign=middle;whiteSpace=wrap;rounded=0;fontStyle=0" parent="1" vertex="1">
          <mxGeometry width="850" height="40" as="geometry" />
        </mxCell>
        <mxCell id="kk9Wr34ttXd7i410Cl1g-8" value="&lt;font color=&quot;#919191&quot;&gt;Confidential&lt;/font&gt;" style="text;html=1;align=center;verticalAlign=middle;whiteSpace=wrap;rounded=0;" parent="1" vertex="1">
          <mxGeometry x="782" y="2" width="60" height="30" as="geometry" />
        </mxCell>
        <mxCell id="kk9Wr34ttXd7i410Cl1g-9" value="" style="shape=image;verticalLabelPosition=bottom;labelBackgroundColor=default;verticalAlign=top;aspect=fixed;imageAspect=0;image=data:image/png,iVBORw0KGgoAAAANSUhEUgAAALQAAABBCAYAAAB4ko6YAAAAAXNSR0IArs4c6QAAAARnQU1BAACxjwv8YQUAAAAJcEhZcwAAEnQAABJ0Ad5mH3gAACccSURBVHhe7X0HnJxVvfYzbWdmZ7bvJltSSCEBkoAkRIFQNIiKEIgiioCiXL3yCaJeEb16fxQLBiSi6LV8+qk3SBMkQEgBQjG0UJKQSAghve5m6+xO7/f5n/e8s+/uzuxOsov6xX2SM6ef95Tn/M//nPfMrC1LYBSjOEpg1/YoRnFUYJTQoziqMEroURxVGCX0KI4qjBJ6FEcVRgk9iqMKo4QexVGFd/0cOpbO4mAUaI1lEEykUezjsrBp1xAwk1mLLTLrAJhlSP6iqmnNMBC24grJiyNtQg7y6KLbUTzyFdm3rsaDs/xns9lQ7nGhzmNHoycLt2PYrRoS7xqhE+kMXmpN4YWWJDbu7cS+thC6QzHG8HFsaB8jyLnNcEtYoXAVpv25eG0EVn8ujIuSdhojww/pArMblC1+q9s0KoHFHsIt9oC4fuECFS9GeSzh+sOaTtn6Y4DfaotTO/rY1nj9IeGmO2dZwsTuX1ahcNrSvUIrm92Oyko/xk+ow0nTGnBGoxunjXHC5Xj3FIN3hdBt4ST++E4Uz+8OYu26rWhr7TQi2MA+BOvvV0YTLm+cGIbb84WL0XnNNOLJ2dbydDqBGpSMMSBWIxEZbfePG2AKlDEg3PSLLR90q2dovxjrM63hyi+2YfX6dVjObfolSPtVXCE/beUfzK39YquwfG5tm8b0S3s4BmPH1+O0c96Ls46rxZXTSlHtcxlpRhgjTujWUALfW9uJl3Z0YsO6t4xGyYxUvOpPKtoFySlG51NprHmtxiybH0JaRV4zTkUY4bn0ptH5BNIDhUjdP0wZyZSHjHmNxBcitSVcYLrzkVr81ueZtmn6+JVH2+I0n6cDculMvxidxsxklqPSiLu/P5+717ZlWJ5A58umUrCRB3POOR1nvWc8/vN9Vagt8xhpRhAjSugU1YyvPrUXT20PYtuGzSSywyCPMEeRSJyaXH2IzDDx59LR5CV6P2IOmsbyrAFGwnW8ei6h+t9CsHxGRkZIZbr7xEuQ6bYQyDQD0ouRYOsz85Sh8ulw5dZGYIbn4rS/j1vb/d19/Noupow+fm2baZXd6ya5tF8FsElsUyqN4+afjvNOHIMff2QSKcIxGEGMKKEf2NiCb73Qhj1vbDEaJWSxk9SqISkG0M4RSmyLUeQ0iWa6dZzVKGkraYpIq4wlvSKvJU75JZyWgNXLS2oVLLbE0eofnzOSUGxrGdb0ZvggZaj8NFIXSS/IhWu31S/IJ9GVUR7DtubJua1+bZthRoS2LGF98hRya1uMdLHDxe6mQ/yZtOr3Y95/Gn48vxEXzxlnpB8hjBihk5x5H7p7M15+6xDiHe2AkzpSPAoEDsFnj6Cp3Amv22W0VxopDRRYbeXkDjkX3xvWa2u3ma9f3MC87Me8ZYlT3NpjxpndYbVzPWS6DTt3ipFLI1LJsE3/kdp9yxGndpi2oI8799HrzkVb3Lk8vWGqHWaw1a1s7cm1UWAJU7ZhicOot4BufoajSRzoiiGcLAHK6mAr8SCbTKJ0XCPmzZ2MFV+YDaeTQm+EMGKE3rCvG/OXbEZg1wH6WGTHQUxwBXDZ6VPw/hMnoWlMJbxeD/mjCfRuYERaUiSkGdbnvYvNGin8/ato48KcwsG2AJ56+S0seWIj9oVLgap6xYOqE6fjuS/NwayJ1Tr98DFihP7h0ztx8+q9SLU0A227cfEJpfj6x0/D5PENKCuvgMdbypno1KlH8S+HTArv7NyLG3/xMB54mRypGg/XlCn4/oXT8K0PT9eJhg9TexwW0tThHn2zFameIMm8B1efVodbr/oQZkyfivrGcfCXlY+S+V8ddiemTZ2MJbd9Bd+8+ESgaz+SnV14dNMhbrFGbmkdEUK/dbAHG3d3AYf246LjKZkvnofGpnGorKp+d1WMUfx/hxK3G4uuvwKfmT8VaN6L9dvb8faBgI4dPkaE0Cs2tyIRy6DeEcDXL5qLhsZGSuUyHTuKUfSF3e7AHddfivH+BOLhBFZsogoyQhg2oTNUwR/72yGguwML31OPE6ZOhJ86c14wbaanB5nubmSjUR1YANkMsok4TUyZ4pHN5ckm4+qZJrLJhI6TcgsZPst8KZBOKf+AeIYPCj5Tnm3kpUkldMTgyIaDSDfvR2rfbqTbW1V9i4G8tJA+Vf2aGCJPJq3rpdsyBLKpZN/05lFiAWRCIY4x6xKi+jkIxtRU4qqPzgY6W/HYxhZ2+eDlFothbwq3UN04+UfPI33gHdz/hZOwYP7pKPHkfwMUXvogum6+BXA44ZwwDmPvvR+2Ur+O7Yvkti1ov+ZqmTHGMc+HP4LK79ykYwuAndLxrf9A/NVXYXM6WHYp6n73RzjGNiCbTqP9S59HcvsO2FwF9Pl0BrbKCoz5f3+EvaoWPb/6KUL33gebtT3sLpurBI5x4+E560z4FiyEvbLvLj25Yxvar/6iGnypu+d9p6H69p/o2L7IdHUgsvwxRFavRmrbNjXhpa42Ls2O2lqUzDoR/ks/Dfd7T9M5BqLr+zch/OBfOJo2eD/4AdQsvkvHDERk2aMI3H6rapPUzT33vahZdIcak3wI3P49RB5fAVtJierfmrt+iZKZ1IHzILntbbR99rOqXLD/637/B5ScMEvHDsSmt/dg7leWwHHMCdhw8zmY3lSpY44cw5bQq95qRTyexvTKDGZNaYKLA5EXHNzQ/fdSAjUj03oI8bVrEf3rszpyILKxGBJbtiLx1lZ21E70/PJXiDyxXMfmR/iRBxG6+x6VXvIl3t5GqaIlFomY3LGb4W8bcXlMfNObsJf6SNAalSXdcgiJzf3Sb3lHpYssexyd3/gmWi48H/HXX1HpTWRj8VzdJX9qz34d0xcywZvP/wg6WE501VNI7tmHTCCIbDCCTHsn87+N4O//B4HbbtU5BiLT2c52L0W6rZVSvY3kW47Urh06diAyXYFcm6SfQkvuRvevfq5jByJ9sLlPH2QjhVfW8CMPI8FJmT50SAmO8IMP6Jj8OGHqOJw0zodoKI4VGw/q0OFhWIQW2f4IlwsEu3D2tGqMraspuAlMbHmTA78eNq+Xs1ekgQ3hP0uDCywQLMfmchmG0kGe1XXTjSRZ/oanWw4gsGgRJbOT6XU+kcSW+qg4s0wapVpQGvaaFEo/+tHePA5KeWt6qYS88dQSVFaA5Dvb0X7dtUpFyMFad8mX58VB909uQ/u115Ds+1SfqLpSsqklPku1gLZ6FsNtHvZZAURXP8nVsdmoD5+VCXQrYhWE3d6nbja3B913LEb0mSd1gn7o3wcFxjcbCavJpFYz5rGzzpEVK1gffTEtD+SFyoWnTwN6OrFsUwvbPSxlQWFYhN52qAev7eqCM9aB+bMmoNSfX30QhJcuRTYUznWIkDT24otqmSoG0pmpXXvQdcuN7L2B+lZg0a2KHMZkGQLsOOn46h9+H7X/fZdhfnEX1ZP/S0Iv0In6QvTUsisvR/Vti+C/4jLWh8/R5aS270T0iRU65dAI3bcEgR/fAZu8Ema7svE4HPVjUf7lq1H3299i7H33ofbXv1Z+1zHjlQqSF5yQ4YcNVSMHlhd+9BFFsKJAgmeTaXTe8M1BJftQiL24hlJ5uxIaCiSrjEfkqVWGvwAuOGMmXMluvLK9AztaenTokWNYhF75txZEY2lMrchgJtUNpyu/upEJ9ajZKp2tIDORHZnpDhoDUiREUoUfeYyqy590iIHIE48j9NBfDOlQDISIrIvv4ktpPm2YTxh2f304B26mvOeci7LPfQE1d/wM5ZSuslFSIKESm7cY7iGQPrifKsTtJDMHXshEMnvPnY/6R5eh6qYfoPSCi+A58wPwXXSx8jc8sRoVX/6y0Wf9kHh7M2KvvW7otwJpFwklq0Z0TWF1rj9kcqb2H0TH9V/jRAjp0MND6C8PsXFa0Jh1tdm5Cv9Z9V0hzKDaMauxFJFIEitHQO04YkLL8vDYpkNsSQBnH1uN+jGF1Y3Ymuc4+3dZZq9+LEkVWbZMEX5ISCexeCkjcOutlOxbVbDokIEf/IDx9BR4fkHkIclgsJ4guE89VRGyF8WVFfrLg0ovlZVEpL5r2lTUcqPlaMx/ScdeXcvN5zl52yaqRW7Vk2jz5hrbZahzRUCkP9OLMIi98BK6fshN+2FCTmVia57vnVi6HqL6xV9fh8SmN5Q/H1ycTAtOnUK1I4Cl6/crXg0HR0zona0hrN3RAXu0Ex+YNR5eX+Fz57DMXpm8XCLt1VXwf/pTaiespMmOXYg9s9pIOBhkMojOS/0s3daBzv/6T3WM1P3TxUhu3aYkrpIExXCaBBAyRbkcGmYlok/S0M50d+lEA5EbMJI38vjjfJ7ufA6C6/jjDfdgYP1jzz7TqxZRT/ZfcUXhVWEQiBCI6lVP+rJk5gx4PzifEj/BvqA69wLVue3GpC8Iqfes41SfGqT2IviH/0Ho3iU6QXGILKdQ6qCuLBOc5ZR97orcaimbyNBDlNKD4Px5M+AUtWNHJ3YOU+04YkKv3HQQkWgaU8ozOHFqE1wl+dWN5K7tSleW2ZpNyDHRXJRffS3s5dS3haBE6AFKk0FmpkhGz7zT4Z53qlqipbPiL76Mjv+4DqEHH1KbKklTMudkJfGErINCCB2Nov1rX0XrlVfSfE7bn1VHbvkgKkLw3j9Rh/8uWi/7JEJL/qQ2YlIf56SJKP0IN5NDIBPspjTjJtAkEPO755yiYw8Psuold+pVj+0tXXAhyi7/DCvKfrTbODF7qM5RkAwCqbv/kk/Cf9mlyMaiql+knV233IL4uld1qsEhalf40UeNSUpp72hqQPk1X4Nr6mQ1DiIEoitXkfBtOsdAnDR9Ak6o91DtSFHtkMttR44jIrQsC0vX88HhHpw5tQr1Y2vZF/lFo5x7Zrq6jdnLpcj/iUvgHDcRnlNPM6S0bA7XrlWnIAVB4jsoxap/uIgSvtJYJtmB4YcfNY6RWB+734eqm2/hRCnPTZShYLNzBy+7eIspCMZFV61Gzy9/g+hzaySzeo5zXCN16sVw1I3VCQtDNmpyHCnEEUjb7WUFXkINAWPVI3lZB3tNFXwLqHufcTZckyYZE1rUucceG1ydU0LEjqrv3siJNVsRXNqZCYbQ8Y2vqTNydQ14EMRffxXJN99SE0uEipwSOWrGcC9wgXFKw/JSBw4gsqrwprmEwu68UyZRsvVg6brhqR1HROhdVDde2dml1Y0m+AqoG9l4THWqqS44qiqRiQZJiKfgGFtnDKxIS+qBYeqWg0E62zX5WFR+m6qGHGmxzUoFkPyMK7v6S3CfdIoxKMWA+ew1NbDX1VnMGEN1KQQhMeMN1YMVcDlQ87OfqU1cURByyBce9IAJAeSt2uHCWPVeUvXIciPmbGxUG8ToC88pCSl9nVPnnn1a58qPbJpS1OtDzZ0/46SsUSSUcpNb3kHnjd8hY3snYD7IKqD2FkyjJmhlhRpf6Rubl2qHmjMOqh0c30HesF505gw4lNrRgV2HBn/LOBiOiNCyLISpbhxTnsbJ08YXVDfia19C8u2txrIopxokbsc116H18isQuu8BTQz2hUiT5csH1V9NlF1+JUovWmAskYR0ppuqRgXVGKP3ioBINZ8PYx94CI1PP2uYZ56j/Rx14QJvtpinZNbxnFTHGBJQJlI0jp5f/1otu8XAXl6h9hBZkax6IsbXr9OxxSPyOCVvV0D1qZxQJLfvROtnPktV6HLEX7WcehChP9/Pbhm6X1zTT0D1rT9ivehhelHjIsuWI7L66T7lWZFua0H0aUs8pXH37Xeo8Q3czI262sXzP8c3sX4D4hteN9LlwezjJ2LaGDfCkTRWvpH/RVQxOGxCK3Vj3T5OzSDOorrRUF9HwZW/GJG62ZRs1Ngq6VSqCqpvRdKlDb8CCZ/avZebsicM/2Dgs6pv+j6cx0xQdxfkFXfVTTfDVuorauByYJ2UhK6q7mPU5MsDWRUqr78eY+9/EM76MTlJFn3iKYTu/qNONTjkJUbJzJlqM6jgcCF8/32c6MVLpD6rnoATTb6nx9KNfk3RL2ESwvrFX36FQmWz8g+F0gsWovzaLxtqkSDLSdcTUX2VD9EnViHd3KKIrCDjqyarXfFEja/YMnlj1LUHeXPodpfgvDkTFa8efm2vkf8IcNiE3nmoB2u3dcAe78L8k8bD78+vbqSbD3DpeU7tuKVRsil0NNZzeWxQRtyOMVQ7zIqz0aEH5cxyaP3X0dCE2p//AhXU82ruXAz3++bpmMNDIfIWgmxq5Xit4oZv5V52CGm6qXak9u5W/qHgu+hjbIDR7SJd5fV253e+iQwHMh/Sh5rV2bWJ+Csvcb/xtpJ6ql+5dxA1I9evdNup2ql+ZJ+KPqzOiItExddvgPfD5xqXx4TH6nuXeZBJI7z0YcZrMvNZ8nLIrIeqS0M9J57eALOfIpz86VZOgAL4GNUOeyqItcN4yXLYhF6+fj/CsQyOKctQ3RhXUN2IrFrOweDOloMnM77sqs+j4alnaJ7W5hnUc/frOnZKbnMoy2XizY26hMHhfu/pqPqv76mXIYcNkRiUsJFVy/qalY9xlViRU2cKwffxS+A5+0xDX6d0Sh9qRWDx7Tp2cHjOng/vB95vbGYJOekIP/gwDn1iIYJLfo/4G9IHb7Aeq9B1y3+h+UPnIHDHbSqtQJFTSWTyhDppzW2LLH1qmDH33AObz6tILQIlsvxxrmbF3Tm2cTxrbrvDOKUQ3bgAEn/bSHVpg5pYclTonjsHDU+uVuNqrYtvwQW9/URpHlmxTJcwEHNnTML0sW5EyK8V66kFHAEOi9CyDDzy+l6ylerGtEo0FlA3ZHmWV91qKWIee5mfxLuEOmQl7BVV2lRSQjegdOFCtXwrkkUiQ55ZjgjkWZRAHd+4Hm1X/Vuv+fxVaPs/1yDdwd39ILBxc1d5w7eNTY+QxuNBZOkjiD0/9Ns5IUD1rYs4kUkYfYVWSJ3YtBmdlPyH2B8tF16I1s9diZ5f/lqduUdXr1aSLd12iJs8rnqc/DIhXZMnw/vBD/ftV7pLZr4HnnnzlKBQr6B37aGuW+CuRh7ICliz+E7uMzgpzLd//RBe+hdjUrIv5SqC7+KLuTJQheO49o5xFfyXXsb6GquJ3OgLP8RNZIFrsaJ2XHDKMdRlQlj6+j6V5XBxWISWZeCV7e2wJ7px7nsmwucv1zF9kVj3GuLr1hvEYaNLTpnDAcz/vTE5bpKdsZIGnBzqzWGAm0O6ZdBMk9O3h4LocdZ81l7pHyc6pyyZfYx0iV5mSdY+6S1luWfPhf9Tn0SGk1DUD9ERu279odJxVbut+frV3TlxMuqW3APPmacrUosEE8EgxFZHcZTAcqSoBIKUwb5JUe2IrFyO1IGDRr2Yr/S8j6gTinzwXfJJRTTz+aF778nVv0/dRDXJA/ep81D53e8q8mWTlvSsp+j8chFJ6cqsu6ga3nM+pHP2hXvOXG6mZxp6Ofslvo6bQ6pNhXDxWTPhSIcUz7Y1H/4J0GER+vF1exCJZnBsFXDy9PHq6zT5EHv5eTipP7kmTYRzEvXsS6kWCHnyQAbXt/BCdZ7rmjJJ6bXx19eqa5wubvyUYTl20beLgOhtrkmSh2bieG7fe/Vk0S9VuFluf2PmEb2PkBMJebYRN1HdrrOi4rqvcamdDdcEql7TpiLT3qaOrOQEpbfMiRxwbiL7wTXlWIy598+o/cXPqYKcDXttNSvIPhKJx+eLHuw+ZTYqv30DGlY+AfeJJyP20vNUBSaxz9j3M47j6vZxo7A88J75fk6YeXCOZ7+ybnIbMHVgL4VHZZ822SvyCyWB3Fsp+7fPw9nEPtX9I21LvLGOdWUbpC4s3/exi+CoHdhGBao8/ssug3NCk8rv5BjEnv+rjhyI2cdNwMxGL6LxLNVbagOHiaIv+Euq99+4DGs27seV73Hip19diMqa/CSTCy7WYu1yiV8GqgDUlUn5DQ8lGbmBkFto1OUy0d4bY0J0m7vwNUoT2Sglpr4MIy97bF6SUE+mLMtTv94zCKx55DhOfetFS2y7PL/fRlLqrSSX8rDulKzyCrlP3SlpbZ6+k6E/hHByp1mOAm1ceh21NcbLGpHUApatNo66H5VELyCdTchqYXxbhnmkbm6qSMzfp69LPErPLgz9XLMP+ExDahtnz6oMtlfGrCC4UmQst//Yw9TxC9/MvOG/l+HHTx7EGSc14a83n89FwXh2MSia0FsPBHDy9Q8j2tWFxZ+cjK9cfh5c0kGjGMUI48+r1+FTdz4PT1U11i+6EMePK/6bLEWrHI+/thtRdXyaRmNtOVeSwWb1KEZx5Bg3hgTmwhTL2LFs3UC1o6e7G4kCJzBFEVq+CPvw2p10cLPCfy45Ay2gE49iFMOF+gFH2ZxTVVn62h71uy+CAwf2Y/Hti7DkD7/HXXcuxpOrVqpwK4pi5ZZ9XVi3vY3CmTtdqqCBcP7ZMYpRjATaAhEKT+rNFKDrd3Xgrf0BpCiR//Db32LSpMncVjhw3PEnYOOGDXhl7cs6l4GiCL1q3R7EU8YDuCtSBB/FKN4trN/ZSg1ANt9ZJLIOPPW3ZuzbvQPjJ4zH2Pp6BLiPW//6a1iwcCFeeflFI5NGUYR+4c0D3D3q0wHu8le/2YrYYN9ZI/GzsYjeZet7C6P4l4ZxkkU+kBeDvVNIp9J4fMN+uVMqxyEKL2xpRlLO+qn6inTeu2c3auvq4PP5Gdb3BGTIU45MOoPZ196NTftZkSxVDjnWSsWx9Dvn4qIz8/8+gxzpZDoPIdXcgnRrMzJtHcbvTaQSfCBnnqcEdr+fpgK2ctpl5bD7ytTrWjkyk+Ml9c1tuW5Z4PciRvEPgKiccmSXoJ2IGi+FwlF1rJcJ9nCMg8iGuukOk7xy3Mk9l4tjXV4GuxxDjmlQ7yfsNfUFjwqXv7YNF97+LDJOiacQpaSeOdaN1350Ee788W2YMvVYHH/CDOzYvg2bNm3E+RcswJy57zUyE0MSOhZL4MSr/4DtHfqtEidENp3FzONqseZ7C1FVNvj5qkB1QjCIdGe7+l2O1IF9SO3dq0y6pRnpdhKe8ZBrmFIbktjmdaszT7lFZyv3KcLbOSMNN+1STgSZAH76vfTLWWip27DdMilKaDghOCmk89Q5qbwwoVFn2jJRxOhz3aMCMpRCOjFyNp6kJFRu4+cR1M8kxGnkfD3OFTQaQybCPqfUzERDJCftkBCVBFW/gMQ0EXHLb4WE1Vmy+pJClHsolgs7n+fiOJWVwVFbDUd9I5zjx8M5cSKc48Yrv6OmBjYKrMHPug108tln37oKb+6Qq7EyLizf5sBEfwZb7rocwe4O3PenPykOJtmW2XPmYv4HP2hk1hiS0HI8cvK//w5b2pksK0sFSxNSU9QvPH8m7r7qdPgpcYcDeeGRCQRIbBKeBE9xNyvfckgfpGmROwzt6nW4kD4b4bIlh/qybEnV5bRFSCkvLxRhNVmFuHKHQIXTlhceLsaVME4IziXNxsGwSd11WpVOJoDTbYR5jTB1s00gE00thXbaxhm8zUu/el1eoBtlRZO7F3LMVLCrWX/1OtvYbKv71bJfEdVN37UWiadesUeYRsKlD7jiqVfSUrbERYW48pNd9IsQidEv/ZTRBJe0SbGZVggpfrnoZPalUit1X0p/eL3qHo69qkr9ipOD+qujsQnOJhK3aZxB2LpadWdDXd8dBoIUnJ9Z8ioefW4nqyB1EcMIjttUfxybfnYFvPp7iiFONg/d+X7RtqgXK/Ov/Q2e280OYMcYEk1MFlkSY/6HZuGuS07CjLrCb36GCyXhwyR9TwAZbgjk8pB6s9bahozY7Z1UcSjlA1zu5HfVKGnUG0N2kiGZWG8OlrqrazZX7D7SmW7VNCNMffaJL4Bi0hSLoYdCpcmlUg5+mLZpmVVi3dRX42TCyQTlxJT7IoqosrKJqldZoe6By5tJ+caOENQhdg2JSiLLZSObj6tkgZ+oGAm82RrEdY9sxrMv7DAml9Rf+kKM3YkzxsSxZvFVRluGQFGE/s5dD2PRyn19Oko/FVlKrbpZk/Hv5x6PS2eNxfRqD1xDP/fdgdqMUoKTzJkwl0xZNqnbZanbqckQED1PSE93N+PCjAvJMso8CS6/MVluKREp4Qxd0ZgMWZFcSmKKzTbnJoZpG079YcDiHIA+/UOP6Tf7VYgof6RSVh8ho7zmFreQUlQpWb5lleHqYKekkisBcvNPqV9+klR01nKxK0lYcVOCSpgQmHsXee1sLzX2Kv+oPUqSXbm1M4r732rDb9bsRPs2uXRFwSPtt1KSBP/GvCrcce1CHTA4iiL0qxvfwRnXLUHKJ18ElWWJsJJaSmCHNUxtwsnTmzCjqRKTqr0YV+5Gg9+JWq8TlW47/GS6U7L8M0Ivy2pJFkLLL27GactSL8u7EFwZTpo406RlyU8iI7frhL2in0peo0sM9UGIb22v9BN1Q6Wm6HRKTVJvXW2wixojao+Qlfq/UpGUYbzcb5HNMlUkueciuqtNvrcn6f9BpBwKQtpwMotAPI32aBrN4RT2BRPY3RXDmy1BbNjZipa9rUwUUf2iIMJD+klIRf3ZHtiHNT+4GPNOOtaIHwJFEVp+6vTjX70Lj22llJIOVE8kchJFns8wGUDRayhFnJQYXm7ayriJq670oZamnqahyouGCi/qSfZ6vws1pU5UkOyVbge8ZDst/B3+gu4ohgn5Bl2cH9GUEDaDbpqOaAotoSRagkk0B+M42B1DS3cU7cEoOoMxBMNRRLkCpqkKQlY/fchgTu7e1U6EJlekZBznNcWw7Par4VD7lKFRFKEFW3cewFlf/CnaXE29s0lgJbVya+QqRyPhYqRS1OOc3HC4KaW8pSS834uKci+qy0tRS7umzIMxJHytrwQ1/hLUkvBlJXZUUcoL4f108z88dKtV2XjKKEYAMmRCVPn77AlyKkSSRunuonQNUty2RVLojCRpJ9FKSdsRjqM9FEcnTQ/dPSSrEDZOsqYTsorJhlMkrpBA80FBkcKwVZSOz7kZl02jumcn1vzkC5gxmZwrEkUTWrDyr+tx2Y33oNvDB6hlTmfNR+p8tjhVlpzDsMSr4slUeY9P0peUOOHm8ur1uOErdcPv86DC50a534Nq2uKuJukrSktQ6aGUL3XB56Sk5wQoYVkVXodSb4T4Xobb+CBxy1yUTbT+Wt9RCcUh2rJgCjnFHePSH6Fb7kWINE3QDsTSCDG8J0aiUi3ooYTtiCURFJukDVJt6oomEaYdpvoVZVyCapUY9TWw3OmIPIEQWw2t9gvEqfw01nTKKI9hm2mEA1Tlyrp34r5vLsT5Z5wkiYrGYRFa8OK6Lbhm0QP4W7sDWW8FS5AWENoSDCS1/lCktbi1M+c33aqFFtv0yofYeqMkrHRQxSmhnumi1Pe6OQmo7vg9XAFo5DjR5yXRaZcxzsdVoZQTxVfiQBnD3SS6kN3HCVHqspPsNngo9n3Ue0qE8ewa+Rm+EoZ5GO9gvPyBGzUpWA2X6MN0uBjPaAXpTbnMNRTkWZJX2pZkmWIkm+idkpte9RwlMVMkILmT1OUmGBghEYWsKYbJsh9hgjD9MXGTnEHq+hHmi5CsARYap8QMqXASUshLf4ruMNOlacdJ0Iz6xrhFquaMPFU+tD/nFT/TKr8ZrtNY/QJpUJ/8pm1YxjjTE+7ECaUh/PLaC3D27ON0XPE4bEILuntC+N1Dz2HJE2/grZYo0iVlJJdsXCi1qcjLSGRN8inoR6gRFFt/5PPn3BZbpbO6tS3Fite0jY9eWNMqFopt1E9OEZwOSnES186NmYvGTePQxs1wNVHoVvHcgAnJxUiYg/nlNayU5WKYTA5pszxC8qq68H+vLegNi3KAFRWYQchscMg4QZE7jSJBo2yXEFykqoySpIvQCKFFOqZoR5kxTSM/OJOkTip/nto8jcnZklkZ+gXKLQ76lW3GW939jURJeu1XSWmr8i3lmrY4Tb8J5TXjpG4yeeQkKQ57NIDja1z47FnT8cUFp6NKfiruCHBEhDYRi8Wxefs+vLF1H7bva8Ou5i7sae1GSyCKjhAlglxocnqQlTNMu+zGSQBFeA64HtgcLM5eIuoPsVWY1V3AzhumHL22Mmx2zm9a2i12zil1Fb/FqMkxRHjObZYhtg6TOPUMGqtbxeV7pvbn+o0wSaEIYhodoYbUDDONTp+LE0vswzG6DIH4TVuFm37tzhFW1BM5JYpyFxmBz55CtceBhgo3JlT7MHlsBaY2VOPEyQ04cUqTUjGHg2EROi9YnOxmOwJBtLR3Y/8hkrylgyaAfW3dONARRFtPHAHqacE4pRQle9Yl56FCeBohvCK+HkiBchtO5RB3zq8haUzb6jZt5bTaymH4+6TTbjOtMlaCmeQy/VajCSe2VD0XZk2jjSInbYG4JeOAMvPllTAjW45gikAWIxEiOcXuH2cawYBwFWjYKo3FnbOFqGJk0ydkNSQsElHYEhH4nVlUlthQ53ehsbIUE2r8mFhXjmPGVKKptgIN1eWorfCjXL5RLu0ZYYw8oYcCHxeKRBEIRtDWFURrZw8OCtHbAzjY3oPmzhBauyNo74mhm5uWIHXAWJq6q3odLWqNcSZrqA6mtDcHXg+26ijxqycaUPGm2/zQARankS7n6Y2TiaZsCdPPG4zUpjTNhZnxFjOipNYek3w5t/L0upXXdNOYKoN6cSQSVasBSqrK8RolK40bKZSx2ytI1hpuwOv8bjSUe9FU7UdjdRntMoytKkNdhQ/VZT74vW5WU9r098Xfn9BFQtSZcDSO7lAUnT1hdHST6JT67YEwWjqD6AxG0UbiB8JxdNEEuQMPJzLKyJFTUr7DY0p9cwKIjj9gImjCKCLpAbCSR5ijLEuYMtZ8QxiTuPlMjtTitoSb5Rc0Ei9kZFaRmHLPRklOTcrcck9yKoKKJI0potrTCRI0zQ0wUEbjc9lQzU1yBTfHQtQavwdjyjyoLStFfaWfBPUqt0jVMhK1lBtvVYd/QvzTEvpwIH8gXY6SZAKEYwmuADH00ITCMXRxQnTTDopbbKYJyUSRoyhK/2hCJkKadlrt9BOpLOLcWMWFD2SL7LFSWZvxU3yKdDIpSCa1IbRODomzuAczJnnFFumonPwQEpq2YqpxoiLbTScdThLYITYfoU5e1GbUpkwpA/0uO7zcyPrdDlTKqY7bhXJvCclaAn+pG9WlHuUXUpbTeBlf5imBW45Jme9owFFB6OFC7mrI6YCcFiTlWIvEFnKnKenUuasiOsMSKRKbJFfhaSQZJicLcaaRizNJ5pd0Bmk1cs7+YcaJiEeIRIcQVcgo5ZSSaHKs5+CkkdMVF22Pk4ZuCZOTGfNURuLkO3jFvkk72jFK6FEcVRid1qM4qjBK6FEcRQD+Fyy24MARL9tfAAAAAElFTkSuQmCC;" parent="1" vertex="1">
          <mxGeometry x="5" y="2" width="110.77" height="40" as="geometry" />
        </mxCell>
        <mxCell id="Bt320UHzUbqXEMl869Tr-1" value="" style="curved=1;endArrow=classic;html=1;rounded=0;exitX=0.5;exitY=0;exitDx=0;exitDy=0;entryX=1;entryY=0.5;entryDx=0;entryDy=0;" edge="1" parent="1" source="hCL2K8-LPSnUoJVgqAv6-7" target="hCL2K8-LPSnUoJVgqAv6-4">
          <mxGeometry width="50" height="50" relative="1" as="geometry">
            <mxPoint x="240" y="210" as="sourcePoint" />
            <mxPoint x="290" y="160" as="targetPoint" />
            <Array as="points">
              <mxPoint x="780" y="240" />
              <mxPoint x="520" y="240" />
              <mxPoint x="430" y="180" />
              <mxPoint x="240" y="160" />
            </Array>
          </mxGeometry>
        </mxCell>
        <mxCell id="Bt320UHzUbqXEMl869Tr-2" value="Customer Data&lt;div&gt;(e.g. vip customers, personalization etc.)&lt;/div&gt;" style="text;html=1;align=center;verticalAlign=middle;whiteSpace=wrap;rounded=0;fontStyle=1" vertex="1" parent="1">
          <mxGeometry x="190" y="133" width="240" height="30" as="geometry" />
        </mxCell>
      </root>
    </mxGraphModel>
  </diagram>
</mxfile>
